# xmcd CD database file
#
# Track frame offsets:
#	200
#	33142
#	50510
#	68005
#	84397
#	103275
#	121595
#	139917
#	157442
#	180117
#	202955
#
# Disc length: 2981 seconds
#
# Revision: 2
# Processed by: cddbd v1.5PL3 Copyright (c) Steve Scherf et al.
# Submitted via: CDex 1.51
#
DISCID=8d0ba30b
DTITLE=Walter ''Wolfman'' Washington - Best of New Orleans Rhythm and Blues - Vol. 2
DYEAR=1994
DGENRE=Blues
TTITLE0=Get on Up
TTITLE1=Worry
TTITLE2=Sure Enough, It's You
TTITLE3=Lovely Day
TTITLE4=Good and Juicy
TTITLE5=Girl, Don't vven Leave Me
TTITLE6=Nobody's Fault but Mine
TTITLE7=Honky Tonk
TTITLE8=Just My Imagination
TTITLE9=Raining in My Life
TTITLE10=Get on Up  (reprise)
EXTD=YEAR: 1994
EXTT0=
EXTT1=
EXTT2=
EXTT3=
EXTT4=
EXTT5=
EXTT6=
EXTT7=
EXTT8=
EXTT9=
EXTT10=
PLAYORDER=
